<?xml version="1.0" standalone="no"?>
<!DOCTYPE svg PUBLIC "-//W3C//DTD SVG 1.1//EN" "http://www.w3.org/Graphics/SVG/1.1/DTD/svg11.dtd" >
<!--
2013-9-30: Created.
-->
<svg>
<metadata>
Created by iconfont
</metadata>
<defs>

<font id="iconfont" horiz-adv-x="1024" >
  <font-face
    font-family="iconfont"
    font-weight="500"
    font-stretch="normal"
    units-per-em="1024"
    ascent="896"
    descent="-128"
  />
    <missing-glyph />
    
    <glyph glyph-name="x" unicode="x" horiz-adv-x="1001"
d="M281 543q-27 -1 -53 -1h-83q-18 0 -36.5 -6t-32.5 -18.5t-23 -32t-9 -45.5v-76h912v41q0 16 -0.5 30t-0.5 18q0 13 -5 29t-17 29.5t-31.5 22.5t-49.5 9h-133v-97h-438v97zM955 310v-52q0 -23 0.5 -52t0.5 -58t-10.5 -47.5t-26 -30t-33 -16t-31.5 -4.5q-14 -1 -29.5 -0.5
t-29.5 0.5h-32l-45 128h-439l-44 -128h-29h-34q-20 0 -45 1q-25 0 -41 9.5t-25.5 23t-13.5 29.5t-4 30v167h911zM163 247q-12 0 -21 -8.5t-9 -21.5t9 -21.5t21 -8.5q13 0 22 8.5t9 21.5t-9 21.5t-22 8.5zM316 123q-8 -26 -14 -48q-5 -19 -10.5 -37t-7.5 -25t-3 -15t1 -14.5
t9.5 -10.5t21.5 -4h37h67h81h80h64h36q23 0 34 12t2 38q-5 13 -9.5 30.5t-9.5 34.5q-5 19 -11 39h-368zM336 498v228q0 11 2.5 23t10 21.5t20.5 15.5t34 6h188q31 0 51.5 -14.5t20.5 -52.5v-227h-327z" />
    

    
    <glyph glyph-name="jiantouxi" unicode="&#58882;" d="M302.348186 851.688755l127.714918 0 0-127.710618-127.714918 0 0 127.710618ZM430.06208 723.978138l127.721984 0 0-127.707546-127.721984 0 0 127.707546ZM557.784064 596.270592l127.711846 0 0-127.709594-127.711846 0 0 127.709594ZM685.49591 468.56192l127.714918 0 0-127.716762-127.714918 0 0 127.716762ZM557.784064 340.845158l127.711846 0 0-127.701402-127.711846 0 0 127.701402ZM430.06208 213.143654l127.721984 0 0-127.717786-127.721984 0 0 127.717786ZM302.348186 77.446144 302.348186-42.280755 302.348186-50.261504 430.06208-50.261504 430.06208-42.280755 430.06208 77.446144 430.06208 85.425869 302.348186 85.425869Z"  horiz-adv-x="1024" />

    
    <glyph glyph-name="youxiajiantoujian" unicode="&#59039;" d="M1024 556l-256-256-512 512-256-256 512-512-256-256 768 0z"  horiz-adv-x="1024" />

    
    <glyph glyph-name="youxiajiantoujian2" unicode="&#59040;" d="M896 364c0 35.36-28.64 64-64 64-35.36 0-64-28.64-64-64l0-229.504-530.752 530.752c-24.992 24.992-65.504 24.992-90.496 0-12.512-12.512-18.752-28.864-18.752-45.248s6.24-32.768 18.752-45.248l530.752-530.752-229.504 0c-35.36 0-64-28.64-64-64s28.64-64 64-64l448 0 0 448z"  horiz-adv-x="1024" />

    
    <glyph glyph-name="youxiajiantoujian3" unicode="&#59041;" d="M512-212c-282.784 0-512 229.216-512 512s229.216 512 512 512 512-229.216 512-512-229.216-512-512-512zM512 716c-229.76 0-416-186.24-416-416s186.24-416 416-416 416 186.24 416 416-186.24 416-416 416zM384 44c-35.36 0-64 28.64-64 64s28.64 64 64 64l165.504 0-274.752 274.752c-24.992 24.992-24.992 65.504 0 90.528 12.48 12.48 28.864 18.752 45.248 18.752s32.768-6.24 45.248-18.752l274.752-274.752 0 165.504c0 35.36 28.64 64 64 64s64-28.64 64-64l0-384-384 0z"  horiz-adv-x="1024" />

    
    <glyph glyph-name="msnui-triangle-right" unicode="&#58972;" d="M257.991 766.353q0 24.471 11.216 40.275t29.059 20.392 40.784-2.039 46.392-27.020q97.882-84.627 180.471-159.059t163.137-147.843q20.392-18.353 31.098-44.353t11.216-53.529-8.667-53.020-28.549-43.843q-41.804-40.784-87.176-84.118t-91.255-86.157-91.255-84.627-87.176-79.529q-19.373-17.333-40.275-22.431t-38.745 0.51-28.549 20.902-10.706 39.765v240.627q0 76.471-0.51 159.059t-0.51 154.98v211.059z"  horiz-adv-x="1024" />

    
    <glyph glyph-name="xiajiantou" unicode="&#59051;" d="M119.67566 301.474584l781.741467 0 0-111.677499-781.741467 0 0 111.677499ZM231.353159 189.798109l558.38647 0 0-111.677499-558.38647 0 0 111.677499ZM343.030657 748.184579l335.032496 0 0-781.741467-335.032496 0 0 781.741467ZM454.708156 78.12061l111.677499 0 0-223.354997-111.677499 0 0 223.354997Z"  horiz-adv-x="1024" />

    
    <glyph glyph-name="arrowdownright" unicode="&#58893;" d="M1024 524l-256-256-544 544-224-224 544-544-256-256 736 0 0 736z"  horiz-adv-x="1024" />

    
    <glyph glyph-name="arrowdownright2" unicode="&#58894;" d="M146.752 574.752l530.752-530.752-229.472 0c-35.36 0-64-28.64-64-64s28.64-64 64-64l384 0c25.888 0 49.216 15.584 59.136 39.52 3.296 7.936 4.832 16.256 4.832 24.48l0.032 0 0 384c0 35.36-28.64 64-64 64s-64-28.64-64-64l0-229.504-530.752 530.752c-12.512 12.512-28.864 18.752-45.248 18.752s-32.768-6.24-45.248-18.752c-24.992-24.992-24.992-65.504 0-90.496z"  horiz-adv-x="1024" />

    
    <glyph glyph-name="wenjianjia" unicode="&#58979;" d="M876.479155 564.445858 540.475542 564.445858l-28.018124 40.447201c-28.67611 53.323463-36.21583 80.893378-80.893378 80.893378l-283.128359 0c-44.677549 0-80.893378-36.21583-80.893378-80.893378l0-121.340579 0-40.447201 0-444.915116c0-44.677549 36.21583-80.893378 80.893378-80.893378l728.043475 0c44.677549 0 80.893378 36.21583 80.893378 80.893378L957.372533 483.552479C957.373557 528.230028 921.156704 564.445858 876.479155 564.445858z"  horiz-adv-x="1024" />

    
    <glyph glyph-name="wenjianjia1" unicode="&#59007;" d="M861.040535-7.894551c0-30.909987-25.074072-55.877635-55.924707-55.877635l-698.703239 0 97.848539 461.131449c0 30.879288 24.919553 55.906288 55.770188 55.906288L902.95925 453.26555c30.855752 0 55.828516-25.027 55.828516-55.906288L861.040535-7.894551 861.040535-7.894551 861.040535-7.894551zM218.161718 495.207801l628.870778 0L847.032496 550.098969c0 30.879288-25.076118 55.906288-55.877635 55.906288L455.787744 606.005256l0 50.658773c0 30.827099-25.027 55.877635-55.877635 55.877635L120.367415 712.541665c-30.855752 0-55.877635-25.050536-55.877635-55.877635l0-664.558581 97.747231 447.175599C162.237011 470.162382 187.311083 495.207801 218.161718 495.207801L218.161718 495.207801 218.161718 495.207801zM218.161718 495.207801"  horiz-adv-x="1024" />

    
    <glyph glyph-name="jiantouarrow486" unicode="&#59050;" d="M171.15136 554.99776l684.02176 0-342.016-341.99552L171.15136 554.99776z"  horiz-adv-x="1024" />

    
    <glyph glyph-name="07jiantouxiangxiafill" unicode="&#58901;" d="M512-64c247.039 0 448 200.961 448 448S759.039 832 512 832 64 631.039 64 384 264.961-64 512-64zM501.149 227.135c-0.127 0.033-0.256 0.193-0.384 0.256-3.616 1.536-7.072 3.649-10.048 6.592-0.031 0.033-0.031 0.065-0.064 0.096s-0.064 0.031-0.096 0.064L331.199 393.055c-12.511 12.48-12.576 32.735-0.064 45.248 12.48 12.511 32.735 12.544 45.248 0.064l136.672-136.288 135.904 137.408c12.447 12.576 32.672 12.673 45.248 0.256 6.336-6.239 9.504-14.496 9.504-22.751 0-8.128-3.103-16.258-9.248-22.497L535.968 234.24C526.592 224.768 512.767 222.399 501.149 227.135z"  horiz-adv-x="1024" />

    
    <glyph glyph-name="wenjianjiafolder79" unicode="&#59202;" d="M831.3344 460.25728l-1.55648 0 0 71.77216c0 24.77056-20.15232 44.92288-44.93312 44.92288L392.46848 576.95232l-29.11232 76.41088c-3.04128 7.936-10.63936 13.18912-19.13856 13.18912L184.5248 666.55232c-5.45792 0-10.68032-2.17088-14.53056-6.0416-3.84-3.87072-5.9904-9.10336-5.94944-14.56128l0.12288-113.92 0-385.65888c0-24.77056 20.16256-44.92288 44.92288-44.92288l575.76448 0c0.44032 0 0.86016 0.12288 1.29024 0.13312l45.19936 0c16.10752 0 29.16352 13.04576 29.16352 29.16352L860.50816 431.104C860.48768 447.21152 847.44192 460.25728 831.3344 460.25728zM788.80768 460.25728l-508.2112 0c-16.10752 0-29.16352-13.04576-29.16352-29.16352l0-288.68608-42.36288 0c-2.18112 0-3.96288 1.78176-3.96288 3.96288L205.1072 532.15232l-0.26624 93.44 125.24544 0 29.12256-76.41088c3.0208-7.936 10.63936-13.18912 19.13856-13.18912l406.4768 0c2.19136 0 3.97312-1.78176 3.97312-3.96288L788.79744 460.25728z"  horiz-adv-x="1024" />

    
    <glyph glyph-name="wenjianjiafolder80" unicode="&#59203;" d="M997.14116267 437.59388445l-180.58808889-341.74256925c-11.33627165-24.00073955-34.30008605-33.18160498-44.83244943-33.18160498l-696.32436906-0.15146097c-28.18339271 0-51.11225458 22.92886187-51.11225458 51.11225457l0.88546418 438.79410347L24.73838365 682.04025173c-0.03495253 6.20990009 2.40007395 12.1634816 6.76914062 16.5675008 4.38071751 4.4040192 10.33429902 6.87399822 16.53254826 6.87399822l181.11237689 0c9.67020089 0 18.32677831-5.9768832 21.77542827-15.00628764l33.12335076-86.93860124 198.16921315 0c-19.6083712-12.81592889-38.10991218-28.40475875-55.58617885-46.60337778L267.9963648 556.93348409c-9.67020089 0-18.32677831 5.9768832-21.77542827 15.00628764l-33.12335075 86.93860125L70.87572765 658.87837298l0.02330168-106.31395556 0-438.9339136c0-2.48162987 2.02724693-4.5088768 4.5088768-4.5088768l54.74731805 0L292.52139235 437.59388445c9.16921458 18.37338169 26.49402027 33.18160498 44.83244943 33.18160497l25.87652551 0 193.71859058 0 40.12550826 0c-26.98335573-19.67827627-38.68080355-55.6793856-26.14449493-88.31340089 11.17315982-29.05720605 39.57791858-48.57237049 70.68567325-48.57237048 9.28572302 0 18.40833422 1.70102329 27.14646755 5.04481564l203.93638115 78.3286272c24.29201067 9.3323264 41.02262329 29.90771769 46.56842525 53.51232853l44.69263929 0C982.286336 470.76383858 1007.92984462 458.39064178 997.14116267 437.59388445zM428.8479232 500.50844445l104.50807467 0c0.92041671 0 1.71267413-0.19806435 2.59813831-0.25631858 19.7132288 18.07045973 40.70805049 30.97959538 62.91456 38.09826133 64.09129529 20.54043875 128.40395662-7.80606578 165.11576747-29.70965333l-122.29891414-46.96455396c-21.02977422-8.0740352-31.52718507-31.6669952-23.45314986-52.68511858 6.23320178-16.21797547 21.68222151-26.16779662 38.07495964-26.16779662 4.87005298 0 9.81001102 0.87381333 14.62180978 2.71464676l203.92473031 78.3286272c21.02977422 8.0740352 31.52718507 31.6669952 23.45314987 52.68511858L819.97842205 720.47638755c-8.06238435 21.02977422-31.69029689 31.49223253-52.68511858 23.45314987-21.02977422-8.0740352-31.51553422-31.6669952-23.44149902-52.68511857l38.1681664-99.38170312c-51.35692231 25.95808142-127.18061795 49.76075662-207.38503112 24.37356658C518.57107627 598.4454428500001 469.90549902 559.7296867499999 428.8479232 500.50844445z"  horiz-adv-x="1024" />

    
    <glyph glyph-name="wenjianjiashouqi" unicode="&#58963;" d="M930.907044 691.274292 534.897926 691.274292c-24.035377 0-43.81772 18.228153-46.282966 41.611723-0.054237 1.108241-0.128942 2.209318-0.222067 3.306302-0.01842 0.540306-0.039911 1.080611-0.039911 1.626034l0-0.157589-0.090055 0c-4.680794 47.034223-44.368281 83.754542-92.624262 83.754542L93.093979 821.415304c-51.4038 0-93.090909-41.668005-93.090909-93.086072l0-688.659489c0-51.408857 41.685063-93.085048 93.090909-93.085048l837.813065 0c51.402776 0 93.089886 41.676192 93.089886 93.085048L1023.99693 598.187197C1023.99693 649.605264 982.311867 691.274292 930.907044 691.274292zM977.45301 39.669744c0-25.704428-20.844578-46.542013-46.544943-46.542013L93.093979-6.872269c-25.708552 0-46.544943 20.837584-46.544943 46.542013L46.549036 551.645185l930.903974 0L977.45301 39.669744zM46.549036 598.187197 46.549036 728.328209c0 25.700335 20.836391 46.543036 46.544943 46.543036l302.544687 0c24.050728 0 43.83921-18.247596 46.286036-41.647539 0.053214-1.089821 0.125872-2.174526 0.215926-3.254114 0.019444-0.545422 0.041957-1.090844 0.041957-1.641383l0.106428 0c4.754475-46.958498 44.407169-83.596953 92.607889-83.596953l396.011165 0c25.699342 0 46.54392-20.842701 46.54392-46.543036L46.549036 598.18822 46.549036 598.187197z"  horiz-adv-x="1024" />

    
    <glyph glyph-name="wenjianjiazhankai" unicode="&#58964;" d="M961.793 449.656 961.793 449.656 202.079 449.656c-28.215 0-52.07-18.43-60.285-43.93l0 0L75.51 201.517 75.51 766.153l0 0 316.499 0 0 0 0.07 0c0-69.927 56.645-126.57 126.575-126.57l0 0 316.499 0 0-126.572 63.28 0L898.433 639.583c0 34.927-28.35 63.287-63.28 63.287L518.579 702.87c-34.925 0-63.285 28.355-63.285 63.282l0 0c0 34.93-28.285 63.287-63.285 63.287l0 0L75.51 829.439c-34.927 0-63.285-28.357-63.285-63.287l0-759.571c0-34.93 28.357-63.28 63.285-63.28l759.573 0c28.215 0 52.07 18.425 60.285 43.93l0.07 0 129.5 399.137C1024.937 421.296 996.722 449.584 961.793 449.656zM838.368 6.582 75.51 6.582l123.285 379.787 762.853 0L838.368 6.582z"  horiz-adv-x="1025" />

    
    <glyph glyph-name="jiantou1" unicode="&#58931;" d="M313.987456-127.943672c-5.644178 0-11.313329 1.898042-15.983511 5.769049-10.589076 8.84088-12.012607 24.574648-3.196702 35.188699l378.909107 454.581042-380.832123 464.620685c-8.740982 10.663998-7.19258 26.397767 3.496393 35.13875 10.688973 8.740982 26.397767 7.167606 35.13875-3.496393l393.893649-480.579221c7.592167-9.265441 7.542219-22.601684-0.124871-31.817176l-392.145452-470.464656C328.247744-124.896816 321.130087-127.943672 313.987456-127.943672z"  horiz-adv-x="1024" />

    
    <glyph glyph-name="jiantou34" unicode="&#59184;" d="M449.386 618.56l250.667-250.773-250.667-250.667z"  horiz-adv-x="1024" />

    
    <glyph glyph-name="jiantou11" unicode="&#58944;" d="M568.935 355.908l28.027 27.997-0.041 0.041 0.131 0.127-28.112 28.142-0.084-0.084-451.402 451.87-28.078-28.055 451.413-451.88-451.88-451.418 28.055-28.084 451.973 451.344zM427.441 835.381l451.418-451.883-451.88-451.412 28.049-28.086 479.997 479.608-28.012 28.043-0.084-0.084-451.403 451.87-28.086-28.056zM427.441 835.381z"  horiz-adv-x="1024" />

    
    <glyph glyph-name="jiantouxia" unicode="&#58939;" d="M799.9488 502.4768c0 4.9152-1.8432 9.8304-5.632 13.6192-7.5776 7.4752-19.6608 7.4752-27.136 0L552.7552 301.568c-22.4256-22.4256-58.9824-22.4256-81.408 0L256.8192 515.9936c-7.4752 7.4752-19.6608 7.4752-27.136 0-7.4752-7.5776-7.4752-19.6608 0-27.136L444.1088 274.432c37.4784-37.4784 98.304-37.4784 135.7824 0l214.528 214.528C798.1056 492.6464 799.9488 497.5616 799.9488 502.4768"  horiz-adv-x="1024" />

    
    <glyph glyph-name="jiantouyou" unicode="&#58940;" d="M393.5232 671.9488c-4.9152 0-9.8304-1.8432-13.6192-5.632-7.4752-7.5776-7.4752-19.6608 0-27.2384l214.528-214.4256c22.4256-22.4256 22.4256-58.9824 0-81.408L379.904 128.8192c-7.4752-7.5776-7.4752-19.6608 0-27.136 7.5776-7.4752 19.6608-7.4752 27.136 0L621.568 316.1088c37.4784 37.4784 37.4784 98.304 0 135.7824L407.04 666.4192C403.3536 670.1056 398.4384 671.9488 393.5232 671.9488"  horiz-adv-x="1024" />

    
    <glyph glyph-name="jiantou12" unicode="&#58883;" d="M398.499 659.5l274.256-274.256-274.256-274.256z"  horiz-adv-x="1024" />

    
    <glyph glyph-name="jiantouyou1" unicode="&#58906;" d="M133.240607-60.410626l-69.099774 67.271126 390.564253 378.87912L64.140833 764.606461l69.099774 67.275219L592.907705 385.739621 133.240607-60.410626zM496.768087-60.410626l-69.099774 67.271126 390.564253 378.87912L427.668313 764.606461 496.768087 831.880657l459.664028-446.14206L496.768087-60.410626z"  horiz-adv-x="1024" />

    
    <glyph glyph-name="youjiantou" unicode="&#58896;" d="M223.361 239.226h278.040v288.745h-278.040v-288.745zM3.339 501.669v-231.082c0-37.876 25.531-31.361 25.531-31.361h122.984v288.745h-127.108s-21.407 0.679-21.407-26.303zM1010.849 411.593c-35.284 34.477-377.398 287.565-377.398 287.565s-39.407 38.982-39.407-19.456v-151.729h-0.414v-288.746h0.056v-161.675c0-47.911 38.006-6.251 38.006-6.251l376.25 291.311c-0.001-0.001 28.621 23.955 2.907 48.981zM1010.849 411.593z"  horiz-adv-x="1024" />

    
    <glyph glyph-name="zuojiantou" unicode="&#58897;" d="M206.02075364 487.50204799L402.62472309 290.89807855000004l204.17425464 204.17425464-196.60326234 196.60326233L206.02146075 487.50134088Zm29.99546966 341.15356608l-163.39964921-163.39964921c-26.78265929-26.78265929-4.12236182-40.22850686-4.12236182-40.22850687L155.45710336 538.0645669099999l204.17425464 204.17425464-89.87822164 89.87822163s-14.65744959 15.6170444-33.7365595-3.46206551ZM884.73946031 52.547090430000026c-0.57049375 49.32847616-63.52223058 470.19913943-63.52223058 470.19913943s-0.30059109 55.42918134-41.62193149 14.10784095l-107.28931191-107.28931191-0.29290201 0.29290201L467.83911252 225.68368911000005l0.03959303-0.03959303-114.32148885-114.32148884c-33.87833441-33.87833441 22.45429604-31.29501171 22.45429605-31.29501172L848.0481137 19.96742832999996s37.17818963-3.29943095 36.69156581 32.57986716Zm0 0"  horiz-adv-x="1024" />

    
    <glyph glyph-name="goutongye_zuojiantou_fanhui" unicode="&#58935;" d="M88.13714263-33.57257167L1161.36228563 393.14285733 88.13714263 819.85828533 280.42971464 393.14285733z"  horiz-adv-x="1267" />

    
    <glyph glyph-name="right" unicode="&#58884;" d="M1588.206 392.432c0-29.351-7.785-58.743-23.272-84.888l-444.093-749.383c-46.878-79.144-149.044-105.249-228.145-58.369s-105.205 149.002-58.369 228.145l393.8 664.495-393.758 664.495c-46.877 79.144-20.774 181.268 58.368 228.144 79.102 46.878 181.268 20.733 228.144-58.368l444.093-749.383c15.487-26.187 23.23-55.538 23.23-84.888z"  horiz-adv-x="2372" />

    
    <glyph glyph-name="arrow-right" unicode="&#58885;" d="M511.699 833.001c-247.539 0-448.209-200.668-448.209-448.207s200.67-448.208 448.209-448.208 448.208 200.67 448.208 448.208-200.669 448.207-448.208 448.207zM724.462 365.46c-0.678-1.481-1.473-2.617-1.939-3.267-0.218-0.39-0.434-0.801-0.653-1.216-1.258-2.382-2.927-5.544-5.808-8.56l-0.189-0.192c-0.179-0.182-0.351-0.346-0.513-0.497-0.575-0.824-1.209-1.585-1.889-2.267l-262.157-252.673c-9.377-9.018-21.685-13.985-34.663-13.985-13.719 0-26.497 5.435-35.977 15.299-19.086 19.818-18.5 51.495 1.309 70.606l225.702 217.538-226.536 214.303c-19.995 18.932-20.876 50.611-1.967 70.617 9.415 9.928 22.651 15.619 36.315 15.619 12.812 0 24.995-4.846 34.305-13.647l264.368-250.049c15.588-14.721 19.725-37.882 10.292-57.63z"  horiz-adv-x="1024" />

    
    <glyph glyph-name="xiajiantou1" unicode="&#59245;" d="M15.192 228.866c0.091-38.014 30.954-68.878 68.923-68.923l583.109-0.226c18.962 0.045 36.204 7.784 48.694 20.274s20.184 29.687 20.229 48.649l-0.272 583.063c0.045 38.059-30.819 68.923-68.923 68.923-37.969 0.045-68.787-30.773-68.742-68.742l0.136-514.502-514.366 0.272c-37.878 0.045-68.697-30.773-68.787-68.787z"  horiz-adv-x="1024" />

    
    <glyph glyph-name="yousanjiao" unicode="&#58921;" d="M412.67753537 200.21786106000002a16.84539076 16.84539076 0 0 0-16.84091534 16.84091535V560.76024254c0 6.38191477 3.60269382 12.20440505 9.3088238 15.06418312a16.80958757 16.80958757 0 0 0 17.62858504-1.593241l229.14922875-171.84178228a16.84091535 16.84091535 0 0 0 0-26.94188423l-229.14922875-171.85520848a16.72007966 16.72007966 0 0 0-10.0964935-3.37444861zM429.51845073 527.07841183v-276.34228012l184.21625236 138.17785317L429.51845073 527.07841183z"  horiz-adv-x="1024" />

    
    <glyph glyph-name="youxiajiantou" unicode="&#58889;" d="M323.602677 607.802182l389.364939-388.637368a31.867802 31.867802 0 0 1 1.369184 9.305947l-0.198522 213.213009c-0.007163 8.010441 6.479575 14.510482 14.490016 14.517645 8.011464 0.00921 14.511505-6.478552 14.517645-14.488992l0.198521-213.215056c0.01535-16.236799-6.29231-31.510668-17.764595-43.004443-11.472286-11.491729-26.732851-17.829064-42.970674-17.844414l-213.214033-0.200568a14.4542 14.4542 0 0 0-10.259668 4.238535 14.467503 14.467503 0 0 0-4.257977 10.251481c-0.007163 8.010441 6.480598 14.510482 14.491039 14.517645l213.21301 0.201591a31.801287 31.801287 0 0 1 10.194176 1.680269L303.111994 587.270567c-4.799306 4.79112-4.103458 13.271258 1.555425 18.940374s14.136975 6.382361 18.935258 1.591241z"  horiz-adv-x="1024" />

    
    <glyph glyph-name="jiajian-" unicode="&#58982;" d="M123.904 434.176h776.192c23.04 0 41.984-18.944 41.984-41.984 0-23.04-18.944-41.984-41.984-41.984H123.904c-23.04 0-41.984 18.944-41.984 41.984 0 23.552 18.944 41.984 41.984 41.984z"  horiz-adv-x="1024" />

    
    <glyph glyph-name="jiajian-1" unicode="&#58998;" d="M123.84 425.92h776.32a41.92 41.92 0 0 0 0-83.84H123.84a41.92 41.92 0 1 0 0 83.84zM470.08-4.16V772.16a41.92 41.92 0 0 0 83.84 0v-776.32a41.92 41.92 0 1 0-83.84 0z"  horiz-adv-x="1024" />

    
    <glyph glyph-name="wenjianjia_f" unicode="&#58981;" d="M514.896 522.443h172.403L514.896 694.846zM480.415 522.443V694.846H135.609v-758.573h551.69V487.962H480.415zM721.78 832.769v-172.403h172.394zM687.299 660.366V832.769H342.493v-103.442h186.679l10.103-10.101 172.403-172.403 10.102-10.103v-462.525h172.394V625.885H687.299z"  horiz-adv-x="1024" />

    
    <glyph glyph-name="xiajiantou2" unicode="&#58886;" d="M245.876 787.252l-1.228-184.398c0-26.292-21.571-47.819-47.997-47.819h-96.046c-53.083 0-96.039-42.823-96.038-95.666 0-21.307 6.951-40.891 18.726-56.925h0.075l400.185-481.842c47.030-46.879 123.376-46.878 170.438 0l400.182 481.843c11.781 16.035 18.736 35.618 18.736 56.925 0 52.875-43.006 95.666-96.046 95.666h-96.046c-26.388 0-47.993 21.523-47.993 47.819l-1.228 184.398c0 52.398-42.797 94.806-95.599 94.806h-334.521c-52.844 0-95.597-42.445-95.597-94.807z"  horiz-adv-x="1024" />

    
    <glyph glyph-name="arrow-right-bottom" unicode="&#59265;" d="M209.7 36.3h614.6l-710 710.1 35.4 35.4 710.1-710.1v614.6h50v-700h-700l-0.1 50z"  horiz-adv-x="1024" />

    
    <glyph glyph-name="jiantouyou2" unicode="&#58925;" d="M312.888889-99.555556c-17.066667 0-28.444444 5.688889-39.822222 17.066667-22.755556 22.755556-17.066667 56.888889 5.688889 79.644445l364.088888 329.955555c11.377778 11.377778 17.066667 22.755556 17.066667 34.133333 0 11.377778-5.688889 22.755556-17.066667 34.133334L273.066667 708.266667c-22.755556 22.755556-28.444444 56.888889-5.688889 79.644444 22.755556 22.755556 56.888889 28.444444 79.644444 5.688889l364.088889-312.888889c34.133333-28.444444 56.888889-73.955556 56.888889-119.466667s-17.066667-85.333333-51.2-119.466666l-364.088889-329.955556c-11.377778-5.688889-28.444444-11.377778-39.822222-11.377778z"  horiz-adv-x="1024" />

    
    <glyph glyph-name="jiajianchengchu-" unicode="&#58908;" d="M192 416h640v-64H192z"  horiz-adv-x="1024" />

    
    <glyph glyph-name="jiajianchengchu-1" unicode="&#58909;" d="M192 416h640v-64H192zM544 704v-640h-64V704z"  horiz-adv-x="1024" />

    
    <glyph glyph-name="xiajiantou-copy" unicode="&#58887;" d="M705.4688384 625.76782933L918.85760001 412.37906773c4.8026112-3.8202592 8.6228704-8.73202133 10.80587519-14.6261344 0.10914987-0.43660053 0.2183008-0.65490133 0.2183008-0.98235306 1.52810347-3.49280853 2.07385493-7.31306773 2.29215574-11.024176 0-0.54575147 0.43660053-1.09150293 0.43660053-1.6372544 0-0.98235201-0.65490133-1.85555413-0.65490134-2.94705707-0.2183008-2.29215573-0.65490133-4.47516053-1.4189536-6.76731627-0.65490133-2.72875627-1.85555413-5.13006187-3.05620693-7.53136746-0.76405227-1.4189536-1.85555413-2.8379072-2.8379072-4.2568608-0.982352-1.2006528-1.4189536-2.72875627-2.72875627-3.92940907L705.4688384 142.34132160000001c-13.97123307-13.97123307-36.5653376-13.97123307-50.31827094 0-13.97123307 13.8620832-13.97123308 36.45618773 1e-8 50.53657067L810.68969067 348.52616533 463.70100907 348.52616533c-19.8653472 0-36.23788693 16.15423893-36.23788694 36.01958614s16.26338879 36.01958613 36.23788694 36.01958613l345.89717866 0-154.44762026 154.66592c-13.97123308 13.75293333-13.97123308 36.45618773-1e-8 50.4274208 13.75293333 13.97123308 36.3470368 13.97123308 50.31827094 0.10915093zM331.62919253 384.32745068c0-19.8653472-16.15423893-36.01958613-36.01958613-36.01958614-19.75619734 0-36.01958613 16.045088-36.01958612 36.01958613s16.15423893 36.01958613 36.01958613 36.01958613c19.8653472 0.10914987 36.01958613-16.045088 36.01958612-36.01958612z m-168.20055252-1e-8c0-19.8653472-16.045088-36.01958613-36.01958613-36.01958614-19.8653472 0-36.01958613 16.045088-36.01958614 36.01958614s16.15423893 36.01958613 36.01958614 36.01958613c19.97449813 0.10914987 36.01958613-16.045088 36.01958613-36.01958613z m0 0"  horiz-adv-x="1024" />

    
    <glyph glyph-name="tianjia" unicode="&#58914;" d="M768 768a128 128 0 0 0 128-128v-512a128 128 0 0 0-128-128H256a128 128 0 0 0-128 128V640a128 128 0 0 0 128 128h512m0 64H256a192.576 192.576 0 0 1-192-192v-512a192.576 192.576 0 0 1 192-192h512a192.576 192.576 0 0 1 192 192V640a192.576 192.576 0 0 1-192 192z m-1.984-480h-512v64h512v-64z m-224-224h-64V640h64v-512z"  horiz-adv-x="1024" />

    
    <glyph glyph-name="youxiajiantou-" unicode="&#58945;" d="M0-128H1024.512V896z"  horiz-adv-x="1024" />

    
    <glyph glyph-name="jiajian" unicode="&#58954;" d="M512-128C229.205333-128 0 101.205333 0 384S229.205333 896 512 896s512-229.205333 512-512c-0.853333-282.453333-229.546667-511.146667-512-512z m0 953.685333C268.117333 825.685333 70.314667 627.882667 70.314667 384S268.117333-57.514667 512-57.514667 953.685333 140.117333 953.685333 384c-0.512 243.712-197.973333 441.173333-441.685333 441.685333zM778.752 358.4H245.418667c-17.749333 0-32.085333 14.336-32.085334 32.085333v4.266667c0 17.749333 14.336 32.085333 32.085334 32.085333h533.333333c17.749333 0 32.085333-14.336 32.085333-32.085333v-4.266667c-0.170667-17.749333-14.506667-32.085333-32.085333-32.085333z"  horiz-adv-x="1024" />

    
    <glyph glyph-name="shuangyoujiantou-" unicode="&#58898;" d="M151.467 691.627a34.133 34.133 0 1 0 48.213 48.213l331.947-331.947a34.133 34.133 0 0 0 0-48.213L199.68 28.16a34.133 34.133 0 1 0-48.213 48.213L459.093 384z m341.333 0a34.133 34.133 0 0 0 48.213 48.213L872.96 407.893a34.133 34.133 0 0 0 0-48.213L541.013 27.733a34.133 34.133 0 0 0-48.213 48.214L800.427 384z"  horiz-adv-x="1024" />

    
    <glyph glyph-name="jiajian1" unicode="&#58888;" d="M779.117714 422.4H544.109714V651.117714a32.036571 32.036571 0 1 1-64.219428 0v-235.008H251.245714a32.548571 32.548571 0 0 1-38.4-31.963428 30.208 30.208 0 0 1 28.306286-32.036572h232.301714v-228.717714a32.036571 32.036571 0 1 1 64.146286 0V352.109714h228.717714a30.208 30.208 0 0 1 32.036572 28.306286V384c-0.146286 19.090286-0.146286 38.4-19.236572 38.4zM512 896a512 512 0 0 1-512-512 512 512 0 0 1 512-512 512 512 0 0 1 512 512 513.462857 513.462857 0 0 1-512 512z m0-953.709714A441.636571 441.636571 0 1 0 953.709714 384 442.660571 442.660571 0 0 0 512-57.709714z"  horiz-adv-x="1024" />

    
    <glyph glyph-name="goutongye_zuojiantou_fanhui-copy" unicode="&#59266;" d="M87.68196884 324.44790367999997L1148.30011867-132.70349919 691.14871509 927.91464994 525.38672396 490.20989553z"  horiz-adv-x="1267" />

    
    <glyph glyph-name="jiantouyou1-copy" unicode="&#59267;" d="M67.589374 762.759393l67.271126 69.099774 378.87912-390.564253L892.606461 831.859167l67.275219-69.099774L513.739621 303.09229500000004 67.589374 762.759393zM67.589374 399.231913l67.271126 69.099774 378.87912-390.564253L892.606461 468.331687 959.880657 399.231913l-446.14206-459.664028L67.589374 399.231913z"  horiz-adv-x="1024" />

    
    <glyph glyph-name="jiantou12-copy" unicode="&#59268;" d="M626.55059145 659.06524499l0-387.85655476-387.85655477 0z"  horiz-adv-x="1024" />

    
    <glyph glyph-name="jiantou1-copy" unicode="&#59269;" d="M0.056328 582.0125439999999c0 5.644178 1.898042 11.31332899 5.769049 15.983511 8.84088 10.58907601 24.57464801 12.012607 35.18869901 3.196702l454.58104199-378.909107 464.620685 380.832123c10.663998 8.74098201 26.397767 7.19258 35.13875-3.496393 8.740982-10.688973 7.167606-26.397767-3.496393-35.13875l-480.579221-393.893649c-9.265441-7.592167-22.601684-7.542219-31.817176 0.124871l-470.464656 392.145452C3.103184 567.752256 0.056328 574.869913 0.056328 582.0125439999999z"  horiz-adv-x="1024" />

    
    <glyph glyph-name="right-copy" unicode="&#59270;" d="M1181.76533323 11.793999900000017c-29.35099999 0-58.743 7.785-84.888 23.27199999l-749.383 444.093c-79.144 46.878-105.249 149.044-58.369 228.145s149.00200001 105.205 228.14499999 58.369l664.49500001-393.8 664.495 393.758c79.144 46.877 181.268 20.774 228.144-58.368 46.878-79.102 20.733-181.268-58.368-228.144l-749.383-444.093c-26.187-15.487-55.538-23.23-84.888-23.23z"  horiz-adv-x="2372" />

    


  </font>
</defs>
</svg>
